<?xml version="1.0" encoding="UTF-8"?>
<svg version="1.1" xmlns="http://www.w3.org/2000/svg" width="214" height="209">
<path d="M0 0 C19.44914317 16.39008919 31.6656998 36.42324401 37.75 61.125 C37.9975 62.11757812 38.245 63.11015625 38.5 64.1328125 C44.04743725 91.17656907 37.23617429 120.02616657 22.75 143.125 C19.3863194 148.05112539 15.65290948 152.61939236 11.75 157.125 C11.10675781 157.87007812 10.46351563 158.61515625 9.80078125 159.3828125 C-1.33924388 171.32027978 -16.82820539 180.86937981 -32.25 186.125 C-35.9375 185.9375 -35.9375 185.9375 -39.25 185.125 C-41.81737486 181.27393771 -41.51115573 178.11331227 -41.48828125 173.65234375 C-41.50371487 171.93033079 -41.5200195 170.20832545 -41.53710938 168.48632812 C-41.55348065 165.78311269 -41.56254735 163.0804576 -41.55541992 160.37719727 C-41.41150961 146.01457547 -41.41150961 146.01457547 -47.25 133.125 C-47.58 132.465 -47.91 131.805 -48.25 131.125 C-47.43917969 130.95484375 -46.62835938 130.7846875 -45.79296875 130.609375 C-31.8800434 127.56440414 -17.40256431 123.87265012 -8.78125 111.65234375 C-0.11958969 97.35618503 1.43704795 81.2170691 -2.25 65.125 C-3.90455184 60.67909541 -5.87671995 56.76335504 -8.9296875 53.12109375 C-10.54135619 50.68451771 -10.44744306 49.76536606 -9.9375 46.9375 C-8.66732389 38.28618935 -9.46037394 30.6736602 -11.25 22.125 C-20.14387219 22.87871798 -27.00847285 26.22702974 -34.74609375 30.34765625 C-39.13284782 32.57282136 -41.63476863 33.49027559 -46.375 32.25 C-60.82529516 29.15653505 -76.9731891 29.13230788 -91.296875 32.93359375 C-95.48468029 33.20502557 -98.26903494 31.39053065 -101.75 29.3125 C-108.85670213 25.19922695 -115.04722535 22.97356289 -123.25 22.125 C-125.4436358 32.75558035 -125.4436358 32.75558035 -124.80859375 43.5234375 C-123.93412139 48.6442216 -123.94062114 51.36217126 -127 55.6875 C-127.55558594 56.42484375 -128.11117187 57.1621875 -128.68359375 57.921875 C-135.69531234 67.78374354 -134.72636571 81.183629 -132.96875 92.515625 C-130.66732623 104.07277482 -126.02423318 114.2790448 -116 121 C-106.64319596 126.4305157 -96.76922754 128.91746735 -86.25 131.125 C-86.58773437 131.70507812 -86.92546875 132.28515625 -87.2734375 132.8828125 C-89.30372163 136.43874367 -91.10084602 139.61228318 -92.25 143.5625 C-93.25 146.125 -93.25 146.125 -95.3125 147.4375 C-103.21476397 149.28696604 -109.72523228 149.77525984 -117.25 146.125 C-121.99531098 142.52979302 -124.97513747 138.0372938 -128.25 133.125 C-132.38387522 129.30911518 -135.88861429 127.21410889 -141.5625 127 C-142.449375 127.04125 -143.33625 127.0825 -144.25 127.125 C-144.25 128.115 -144.25 129.105 -144.25 130.125 C-143.569375 130.29 -142.88875 130.455 -142.1875 130.625 C-134.53864673 134.53079742 -131.19720138 141.97723659 -127.640625 149.41796875 C-124.47383167 155.58254115 -119.54644169 158.69228389 -113.25 161.125 C-108.99469435 162.26415782 -104.81088773 162.24190578 -100.4375 162.1875 C-99.74462891 162.18298828 -99.05175781 162.17847656 -98.33789062 162.17382812 C-96.64188932 162.16213156 -94.94593297 162.14419924 -93.25 162.125 C-93.13361964 165.37469769 -93.06269419 168.6238583 -93 171.875 C-92.96648437 172.79539063 -92.93296875 173.71578125 -92.8984375 174.6640625 C-92.80144305 181.35667968 -92.80144305 181.35667968 -94.828125 184.828125 C-98.35032989 186.71420891 -100.42569827 186.0862101 -104.25 185.125 C-117.6171167 180.11443298 -129.60766471 172.56098362 -140.25 163.125 C-140.93578125 162.52300781 -141.6215625 161.92101562 -142.328125 161.30078125 C-161.47181504 143.36329932 -173.45490644 116.49219444 -174.48828125 90.33203125 C-175.05549252 62.69267305 -167.78329086 36.17428255 -149.25 15.125 C-148.58613281 14.31804688 -147.92226562 13.51109375 -147.23828125 12.6796875 C-110.33467771 -30.84064348 -44.02039838 -33.7927391 0 0 Z " fill="#FFFFFF" transform="translate(174.25,22.875)"/>
</svg>
