<?xml version="1.0" encoding="UTF-8"?>
<svg version="1.1" xmlns="http://www.w3.org/2000/svg" width="192" height="192">
<path d="M0 0 C0.98328423 -0.00913666 0.98328423 -0.00913666 1.98643279 -0.01845789 C4.16958087 -0.0350254 6.35214168 -0.03032127 8.53533936 -0.0255127 C10.10619204 -0.03285686 11.67703933 -0.0414441 13.24787903 -0.05117798 C17.50637173 -0.07337044 21.7646708 -0.07632567 26.02321339 -0.07443047 C29.58406463 -0.07431062 33.14487507 -0.08288092 36.70571494 -0.09120798 C45.11167872 -0.11043529 53.51754321 -0.11332892 61.92352295 -0.10656738 C70.57937161 -0.09993252 79.23479349 -0.12277001 87.89055562 -0.15988111 C95.33453291 -0.19063228 102.77837333 -0.20193212 110.22241282 -0.1980443 C114.66278232 -0.19598175 119.10281992 -0.20137872 123.54312897 -0.22593689 C127.72285904 -0.24829025 131.90189867 -0.24625558 136.08163261 -0.22600937 C137.60937225 -0.22261401 139.13715913 -0.22762451 140.66483498 -0.24199295 C149.26525322 -0.31725471 157.28669266 -0.30090748 164.23358154 5.39440918 C171.33377011 12.81575898 171.08819869 21.61583726 170.99407959 31.27380371 C171.00058383 32.8583496 171.0096527 34.4428867 171.02107239 36.02740479 C171.04402879 40.30438256 171.02951021 44.5804609 171.006603 48.857409 C170.98760054 53.34598106 170.99885856 57.8344961 171.00550842 62.3230896 C171.01183593 69.85660998 170.99364441 77.38977251 170.96087646 84.92321777 C170.92335953 93.62013091 170.92517647 102.31636722 170.94791764 111.01331627 C170.96889678 119.39939271 170.96157733 127.78522011 170.94159889 136.17129135 C170.93363389 139.731761 170.93557895 143.29201878 170.9456234 146.85248184 C170.95620733 151.04710693 170.94195472 155.2409468 170.90888023 159.43544769 C170.90070295 160.97045381 170.90092176 162.50553226 170.91035843 164.04053116 C170.96109757 173.3154808 170.47296306 180.05923469 163.75570202 186.89930916 C158.68933464 191.45967751 154.26775186 192.6426962 147.57395935 192.66183472 C146.91787982 192.66636583 146.2618003 192.67089694 145.58583957 192.67556536 C143.39502435 192.68819054 141.20445833 192.68659024 139.01361084 192.68493652 C137.43966351 192.690923 135.86571911 192.69772882 134.29177856 192.70529175 C130.02099681 192.72294776 125.75029523 192.72764698 121.4794805 192.72892332 C118.80944535 192.7303458 116.13943051 192.73461726 113.46940041 192.73991776 C104.1493259 192.75841732 94.82930857 192.76658853 85.50921631 192.76501465 C76.83012638 192.76381355 68.15128525 192.78490989 59.47225827 192.81650198 C52.01390818 192.84268043 44.55563927 192.85338127 37.09724361 192.85210383 C32.6457865 192.85159462 28.1945505 192.85725495 23.74313927 192.87845993 C19.55449037 192.89786863 15.36627288 192.897949 11.17760849 192.88342667 C9.64419103 192.88134066 8.11074639 192.8860271 6.57737541 192.89814758 C-1.41502231 192.95720888 -7.92124399 192.94641956 -14.76641846 188.39440918 C-16.82501221 186.35925293 -16.82501221 186.35925293 -18.20391846 184.33190918 C-18.91354736 183.32450684 -18.91354736 183.32450684 -19.63751221 182.29675293 C-21.89135641 178.49875249 -21.89785048 175.29949131 -21.91358948 170.97529602 C-21.91726617 170.32092534 -21.92094285 169.66655466 -21.92473096 168.99235457 C-21.93576099 166.79539154 -21.93961048 164.59847583 -21.94342041 162.40148926 C-21.94968564 160.82783864 -21.95633249 159.25418951 -21.96333313 157.68054199 C-21.98437101 152.50835195 -21.99473609 147.33616161 -22.00469971 142.16394043 C-22.00874753 140.38262097 -22.01286446 138.60130167 -22.01704979 136.81998253 C-22.03610182 128.44999883 -22.05033214 120.08002396 -22.05866176 111.71002275 C-22.06843096 102.05317279 -22.09474211 92.39655224 -22.13516265 82.73978311 C-22.16534221 75.27299075 -22.18013243 67.80626407 -22.18344277 60.33941191 C-22.18579141 55.88120356 -22.1947273 51.42324027 -22.21990395 46.96509743 C-22.24322158 42.76828666 -22.24740319 38.57188169 -22.23714256 34.37502289 C-22.23664797 32.8383747 -22.24294598 31.30170628 -22.25669861 29.76511955 C-22.338851 20.0385016 -21.89065683 13.27837567 -15.39141846 5.58190918 C-10.46775615 1.47885726 -6.38793847 0.02037971 0 0 Z M4.85076904 31.19128418 C2.04585524 36.09497963 1.39625859 40.83293082 2.23358154 46.39440918 C4.29754059 52.35695754 8.17415587 55.74702612 13.67108154 58.70690918 C19.67809325 60.31854647 24.10467512 59.52868756 29.44061279 56.59753418 C33.5485735 53.8409941 35.89212331 50.08951298 37.23358154 45.39440918 C37.90790365 39.43789725 36.51915774 35.27492527 33.23358154 30.39440918 C28.1220739 25.53847692 23.80694507 23.84850626 16.83514404 24.02331543 C11.71109453 24.75422339 7.9967776 27.10325046 4.85076904 31.19128418 Z M86.67108154 84.64440918 C85.02200174 86.27453312 85.02200174 86.27453312 85.23358154 88.39440918 C84.57358154 88.39440918 83.91358154 88.39440918 83.23358154 88.39440918 C83.23358154 84.43440918 83.23358154 80.47440918 83.23358154 76.39440918 C73.66358154 76.39440918 64.09358154 76.39440918 54.23358154 76.39440918 C54.23358154 105.76440918 54.23358154 135.13440918 54.23358154 165.39440918 C63.80358154 165.39440918 73.37358154 165.39440918 83.23358154 165.39440918 C83.28256592 161.64968262 83.33155029 157.90495605 83.38201904 154.04675293 C83.43606933 150.40942479 83.49336101 146.7721611 83.55096436 143.1348877 C83.5891852 140.61215032 83.62404997 138.08935973 83.65545654 135.56652832 C83.70125639 131.93474341 83.75922724 128.30332266 83.81951904 124.67175293 C83.83684586 122.98698097 83.83684586 122.98698097 83.85452271 121.26817322 C84.09734022 108.30746554 84.09734022 108.30746554 88.29608154 102.58190918 C92.1398144 99.71955492 95.44417756 98.578003 100.23358154 98.39440918 C104.70363127 99.15778035 107.50740405 100.64961175 110.67108154 103.89440918 C113.0251366 107.66089727 113.37042591 110.52237258 113.43890381 114.87561035 C113.46882164 116.55701363 113.46882164 116.55701363 113.49934387 118.27238464 C113.51605637 119.48183243 113.53276886 120.69128021 113.54998779 121.93737793 C113.57076889 123.1761116 113.59154999 124.41484528 113.61296082 125.69111633 C113.66729952 128.98066174 113.71754105 132.27023644 113.76580811 135.55987549 C113.816088 138.91818722 113.87168829 142.27641056 113.92694092 145.63464355 C114.03491667 152.22116422 114.13400814 158.80773463 114.23358154 165.39440918 C123.80358154 165.39440918 133.37358154 165.39440918 143.23358154 165.39440918 C143.31781005 157.6547453 143.39790479 149.91677217 143.44058228 142.17704773 C143.46157578 138.5717274 143.48955771 134.96679234 143.53533936 131.36169434 C143.57927263 127.87977107 143.60281676 124.39821788 143.61309052 120.91603851 C143.62391842 118.96202878 143.65506589 117.00816488 143.68676758 115.05438232 C143.68938288 104.4904712 141.88736515 94.49083844 134.99530029 86.14050293 C120.39557129 71.67026155 101.81557368 71.34680633 86.67108154 84.64440918 Z M5.23358154 76.39440918 C5.23358154 105.76440918 5.23358154 135.13440918 5.23358154 165.39440918 C14.80358154 165.39440918 24.37358154 165.39440918 34.23358154 165.39440918 C34.23358154 136.02440918 34.23358154 106.65440918 34.23358154 76.39440918 C24.66358154 76.39440918 15.09358154 76.39440918 5.23358154 76.39440918 Z " fill="#FFFFFF" transform="translate(21.76641845703125,-0.3944091796875)"/>
</svg>
